<svg width="37" height="37" viewBox="0 0 37 37" fill="none" xmlns="http://www.w3.org/2000/svg">
<path d="M9.75 17.5C11.1289 17.5 12.25 16.3789 12.25 15C12.25 13.6211 11.1289 12.5 9.75 12.5C8.37109 12.5 7.25 13.6211 7.25 15C7.25 16.3789 8.37109 17.5 9.75 17.5ZM27.25 17.5C28.6289 17.5 29.75 16.3789 29.75 15C29.75 13.6211 28.6289 12.5 27.25 12.5C25.8711 12.5 24.75 13.6211 24.75 15C24.75 16.3789 25.8711 17.5 27.25 17.5ZM28.5 18.75H26C25.3125 18.75 24.6914 19.0273 24.2383 19.4766C25.8125 20.3398 26.9297 21.8984 27.1719 23.75H29.75C30.4414 23.75 31 23.1914 31 22.5V21.25C31 19.8711 29.8789 18.75 28.5 18.75ZM18.5 18.75C20.918 18.75 22.875 16.793 22.875 14.375C22.875 11.957 20.918 10 18.5 10C16.082 10 14.125 11.957 14.125 14.375C14.125 16.793 16.082 18.75 18.5 18.75ZM21.5 20H21.1758C20.3633 20.3906 19.4609 20.625 18.5 20.625C17.5391 20.625 16.6406 20.3906 15.8242 20H15.5C13.0156 20 11 22.0156 11 24.5V25.625C11 26.6602 11.8398 27.5 12.875 27.5H24.125C25.1602 27.5 26 26.6602 26 25.625V24.5C26 22.0156 23.9844 20 21.5 20ZM12.7617 19.4766C12.3086 19.0273 11.6875 18.75 11 18.75H8.5C7.12109 18.75 6 19.8711 6 21.25V22.5C6 23.1914 6.55859 23.75 7.25 23.75H9.82422C10.0703 21.8984 11.1875 20.3398 12.7617 19.4766Z" fill="white"/>
<circle cx="18.5" cy="18.5" r="18" stroke="white"/>
</svg>
