<svg width="14" height="13" viewBox="0 0 14 13" fill="none" xmlns="http://www.w3.org/2000/svg">
<path d="M0.598621 7.01556C0.352315 7.23724 0.332348 7.61661 0.554024 7.86292C0.775699 8.10922 1.15507 8.12919 1.40138 7.90752L0.598621 7.01556ZM5.61538 3.30769L6.03965 2.88343C5.814 2.65778 5.4512 2.64824 5.21401 2.86172L5.61538 3.30769ZM7.92308 5.61538L7.49881 6.03965L7.90335 6.44419L8.32668 6.05935L7.92308 5.61538ZM13.4036 1.44396C13.6488 1.22106 13.6669 0.841591 13.444 0.596396C13.2211 0.351202 12.8416 0.333132 12.5964 0.556036L13.4036 1.44396ZM1.40138 7.90752L6.01676 3.75367L5.21401 2.86172L0.598621 7.01556L1.40138 7.90752ZM5.19112 3.73196L7.49881 6.03965L8.34734 5.19112L6.03965 2.88343L5.19112 3.73196ZM8.32668 6.05935L13.4036 1.44396L12.5964 0.556036L7.51947 5.17142L8.32668 6.05935Z" fill="white"/>
<path d="M0.598621 11.1694C0.352315 11.3911 0.332348 11.7705 0.554024 12.0168C0.775699 12.2631 1.15507 12.283 1.40138 12.0614L0.598621 11.1694ZM5.61538 7.46153L6.03965 7.03727C5.814 6.81162 5.4512 6.80208 5.21401 7.01555L5.61538 7.46153ZM7.92308 9.76922L7.49881 10.1935L7.90335 10.598L8.32668 10.2132L7.92308 9.76922ZM13.4036 5.5978C13.6488 5.3749 13.6669 4.99543 13.444 4.75024C13.2211 4.50504 12.8416 4.48697 12.5964 4.70988L13.4036 5.5978ZM1.40138 12.0614L6.01676 7.90751L5.21401 7.01555L0.598621 11.1694L1.40138 12.0614ZM5.19112 7.8858L7.49881 10.1935L8.34734 9.34496L6.03965 7.03727L5.19112 7.8858ZM8.32668 10.2132L13.4036 5.5978L12.5964 4.70988L7.51947 9.32526L8.32668 10.2132Z" fill="white"/>
</svg>
