<svg width="13" height="10" viewBox="0 0 13 10" fill="none" xmlns="http://www.w3.org/2000/svg">
<path d="M12.5125 3.75H9.75V0.46875C9.75 0.209766 9.53184 0 9.2625 0H6.3375C6.06816 0 5.85 0.209766 5.85 0.46875V1.875H4.55V0.3125C4.55 0.139844 4.40456 0 4.225 0H3.9C3.72044 0 3.575 0.139844 3.575 0.3125V1.875H2.275V0.3125C2.275 0.139844 2.12956 0 1.95 0H1.625C1.44544 0 1.3 0.139844 1.3 0.3125V1.875H0.4875C0.218156 1.875 0 2.08477 0 2.34375V9.375C0 9.72012 0.291078 10 0.65 10H12.35C12.7089 10 13 9.72012 13 9.375V4.21875C13 3.95977 12.7816 3.75 12.5125 3.75ZM2.6 7.89062C2.6 8.02012 2.49092 8.125 2.35625 8.125H1.54375C1.40908 8.125 1.3 8.02012 1.3 7.89062V7.10938C1.3 6.97988 1.40908 6.875 1.54375 6.875H2.35625C2.49092 6.875 2.6 6.97988 2.6 7.10938V7.89062ZM2.6 6.01562C2.6 6.14512 2.49092 6.25 2.35625 6.25H1.54375C1.40908 6.25 1.3 6.14512 1.3 6.01562V5.23438C1.3 5.10488 1.40908 5 1.54375 5H2.35625C2.49092 5 2.6 5.10488 2.6 5.23438V6.01562ZM2.6 4.14062C2.6 4.27012 2.49092 4.375 2.35625 4.375H1.54375C1.40908 4.375 1.3 4.27012 1.3 4.14062V3.35938C1.3 3.22988 1.40908 3.125 1.54375 3.125H2.35625C2.49092 3.125 2.6 3.22988 2.6 3.35938V4.14062ZM5.2 7.89062C5.2 8.02012 5.09092 8.125 4.95625 8.125H4.14375C4.00908 8.125 3.9 8.02012 3.9 7.89062V7.10938C3.9 6.97988 4.00908 6.875 4.14375 6.875H4.95625C5.09092 6.875 5.2 6.97988 5.2 7.10938V7.89062ZM5.2 6.01562C5.2 6.14512 5.09092 6.25 4.95625 6.25H4.14375C4.00908 6.25 3.9 6.14512 3.9 6.01562V5.23438C3.9 5.10488 4.00908 5 4.14375 5H4.95625C5.09092 5 5.2 5.10488 5.2 5.23438V6.01562ZM5.2 4.14062C5.2 4.27012 5.09092 4.375 4.95625 4.375H4.14375C4.00908 4.375 3.9 4.27012 3.9 4.14062V3.35938C3.9 3.22988 4.00908 3.125 4.14375 3.125H4.95625C5.09092 3.125 5.2 3.22988 5.2 3.35938V4.14062ZM8.45 6.01562C8.45 6.14512 8.34092 6.25 8.20625 6.25H7.39375C7.25908 6.25 7.15 6.14512 7.15 6.01562V5.23438C7.15 5.10488 7.25908 5 7.39375 5H8.20625C8.34092 5 8.45 5.10488 8.45 5.23438V6.01562ZM8.45 4.14062C8.45 4.27012 8.34092 4.375 8.20625 4.375H7.39375C7.25908 4.375 7.15 4.27012 7.15 4.14062V3.35938C7.15 3.22988 7.25908 3.125 7.39375 3.125H8.20625C8.34092 3.125 8.45 3.22988 8.45 3.35938V4.14062ZM8.45 2.26562C8.45 2.39512 8.34092 2.5 8.20625 2.5H7.39375C7.25908 2.5 7.15 2.39512 7.15 2.26562V1.48438C7.15 1.35488 7.25908 1.25 7.39375 1.25H8.20625C8.34092 1.25 8.45 1.35488 8.45 1.48438V2.26562ZM11.7 7.89062C11.7 8.02012 11.5909 8.125 11.4562 8.125H10.6437C10.5091 8.125 10.4 8.02012 10.4 7.89062V7.10938C10.4 6.97988 10.5091 6.875 10.6437 6.875H11.4562C11.5909 6.875 11.7 6.97988 11.7 7.10938V7.89062ZM11.7 6.01562C11.7 6.14512 11.5909 6.25 11.4562 6.25H10.6437C10.5091 6.25 10.4 6.14512 10.4 6.01562V5.23438C10.4 5.10488 10.5091 5 10.6437 5H11.4562C11.5909 5 11.7 5.10488 11.7 5.23438V6.01562Z" fill="white"/>
</svg>
