<svg width="15" height="15" viewBox="0 0 15 15" fill="none" xmlns="http://www.w3.org/2000/svg">
<path d="M7.5 0C11.6431 0 15 3.35685 15 7.5C15 11.6431 11.6431 15 7.5 15C3.35685 15 0 11.6431 0 7.5C0 3.35685 3.35685 0 7.5 0ZM6.62601 4.34274L8.90927 6.53226H3.3871C2.98488 6.53226 2.66129 6.85585 2.66129 7.25806V7.74194C2.66129 8.14415 2.98488 8.46774 3.3871 8.46774H8.90927L6.62601 10.6573C6.33266 10.9385 6.32661 11.4073 6.61391 11.6946L6.94657 12.0242C7.23085 12.3085 7.69052 12.3085 7.97177 12.0242L11.9849 8.01411C12.2692 7.72984 12.2692 7.27016 11.9849 6.98891L7.97177 2.97278C7.6875 2.68851 7.22782 2.68851 6.94657 2.97278L6.61391 3.30242C6.32661 3.59274 6.33266 4.06149 6.62601 4.34274Z" fill="white"/>
</svg>
