<svg width="68" height="68" viewBox="0 0 68 68" fill="none" xmlns="http://www.w3.org/2000/svg">
<circle cx="34" cy="34" r="33" stroke="#1976D2" stroke-width="2"/>
<path d="M50.6303 31.8862C50.9436 31.1169 51.1194 30.2757 51.1194 29.3985C51.1194 25.5879 47.8331 22.4963 43.7825 22.4963C42.277 22.4963 40.8707 22.9277 39.7091 23.661C37.5921 20.2099 33.6409 17.8948 29.1089 17.8948C22.3528 17.8948 16.8808 23.0427 16.8808 29.3985C16.8808 29.5927 16.8884 29.7868 16.8961 29.9809C12.6162 31.3973 9.54395 35.2367 9.54395 39.7519C9.54395 45.4678 14.4734 50.1053 20.5492 50.1053H48.6738C54.077 50.1053 58.4562 45.9855 58.4562 40.9023C58.4562 36.4518 55.0935 32.7346 50.6303 31.8862ZM39.6097 36.3008H34.6115V44.3534C34.6115 44.9861 34.0612 45.5038 33.3887 45.5038H29.7203C29.0477 45.5038 28.4975 44.9861 28.4975 44.3534V36.3008H23.4992C22.4063 36.3008 21.8637 35.0641 22.6356 34.338L30.6909 26.7599C31.1647 26.3141 31.9442 26.3141 32.4181 26.7599L40.4733 34.338C41.2452 35.0641 40.695 36.3008 39.6097 36.3008Z" fill="#1976D2"/>
</svg>
