<svg width="13" height="13" viewBox="0 0 13 13" fill="none" xmlns="http://www.w3.org/2000/svg">
<path d="M8.04167 4.875C7.48938 4.875 7.04167 4.42728 7.04167 3.875V1C7.04167 0.447715 7.48938 0 8.04167 0H12C12.5523 0 13 0.447715 13 1V3.875C13 4.42729 12.5523 4.875 12 4.875H8.04167ZM1 7.04167C0.447716 7.04167 0 6.59395 0 6.04167V1C0 0.447715 0.447715 0 1 0H4.95833C5.51062 0 5.95833 0.447715 5.95833 1V6.04167C5.95833 6.59395 5.51062 7.04167 4.95833 7.04167H1ZM8.04167 13C7.48938 13 7.04167 12.5523 7.04167 12V6.95833C7.04167 6.40605 7.48938 5.95833 8.04167 5.95833H12C12.5523 5.95833 13 6.40605 13 6.95833V12C13 12.5523 12.5523 13 12 13H8.04167ZM1 13C0.447716 13 0 12.5523 0 12V9.125C0 8.57272 0.447715 8.125 1 8.125H4.95833C5.51062 8.125 5.95833 8.57272 5.95833 9.125V12C5.95833 12.5523 5.51062 13 4.95833 13H1ZM1.08333 4.95833C1.08333 5.51062 1.53105 5.95833 2.08333 5.95833H3.875C4.42728 5.95833 4.875 5.51062 4.875 4.95833V2.08333C4.875 1.53105 4.42728 1.08333 3.875 1.08333H2.08333C1.53105 1.08333 1.08333 1.53105 1.08333 2.08333V4.95833ZM8.125 10.9167C8.125 11.469 8.57272 11.9167 9.125 11.9167H10.9167C11.469 11.9167 11.9167 11.469 11.9167 10.9167V8.04167C11.9167 7.48938 11.469 7.04167 10.9167 7.04167H9.125C8.57272 7.04167 8.125 7.48938 8.125 8.04167V10.9167ZM8.125 2.79167C8.125 3.34395 8.57272 3.79167 9.125 3.79167H10.9167C11.469 3.79167 11.9167 3.34395 11.9167 2.79167V2.08333C11.9167 1.53105 11.469 1.08333 10.9167 1.08333H9.125C8.57272 1.08333 8.125 1.53105 8.125 2.08333V2.79167ZM1.08333 10.9167C1.08333 11.469 1.53105 11.9167 2.08333 11.9167H3.875C4.42728 11.9167 4.875 11.469 4.875 10.9167V10.2083C4.875 9.65605 4.42728 9.20833 3.875 9.20833H2.08333C1.53105 9.20833 1.08333 9.65605 1.08333 10.2083V10.9167Z" fill="white"/>
</svg>
