<svg width="31" height="30" viewBox="0 0 31 30" fill="none" xmlns="http://www.w3.org/2000/svg">
<circle cx="15.5" cy="15" r="14.5" stroke="white"/>
<path d="M9.37837 21.8919V11.4324L7.79729 7.98648L9.25675 7.29729L11.1622 11.3919H20.5676L22.473 7.29729L23.9324 7.98648L22.3513 11.4324V21.8919H9.37837ZM14.2432 16.2162H17.4865C17.7162 16.2162 17.9088 16.1385 18.0642 15.9831C18.2196 15.8277 18.2973 15.6351 18.2973 15.4054C18.2973 15.1757 18.2196 14.9831 18.0642 14.8277C17.9088 14.6723 17.7162 14.5946 17.4865 14.5946H14.2432C14.0135 14.5946 13.8209 14.6723 13.6655 14.8277C13.5101 14.9831 13.4324 15.1757 13.4324 15.4054C13.4324 15.6351 13.5101 15.8277 13.6655 15.9831C13.8209 16.1385 14.0135 16.2162 14.2432 16.2162ZM11 20.2703H20.7297V13.0135H11V20.2703Z" fill="white"/>
</svg>
