<svg width="31" height="31" viewBox="0 0 31 31" fill="none" xmlns="http://www.w3.org/2000/svg">
<path d="M8.16892 14.6622C9.32421 14.6622 10.2635 13.7229 10.2635 12.5676C10.2635 11.4123 9.32421 10.473 8.16892 10.473C7.01362 10.473 6.07432 11.4123 6.07432 12.5676C6.07432 13.7229 7.01362 14.6622 8.16892 14.6622ZM22.8311 14.6622C23.9864 14.6622 24.9257 13.7229 24.9257 12.5676C24.9257 11.4123 23.9864 10.473 22.8311 10.473C21.6758 10.473 20.7365 11.4123 20.7365 12.5676C20.7365 13.7229 21.6758 14.6622 22.8311 14.6622ZM23.8784 15.7095H21.7838C21.2078 15.7095 20.6874 15.9418 20.3077 16.3182C21.6267 17.0415 22.5627 18.3473 22.7656 19.8986H24.9257C25.505 19.8986 25.973 19.4306 25.973 18.8513V17.804C25.973 16.6487 25.0337 15.7095 23.8784 15.7095ZM15.5 15.7095C17.5259 15.7095 19.1655 14.0698 19.1655 12.0439C19.1655 10.018 17.5259 8.37837 15.5 8.37837C13.4741 8.37837 11.8345 10.018 11.8345 12.0439C11.8345 14.0698 13.4741 15.7095 15.5 15.7095ZM18.0135 16.7568H17.7419C17.0611 17.084 16.3051 17.2804 15.5 17.2804C14.6949 17.2804 13.9421 17.084 13.2581 16.7568H12.9865C10.905 16.7568 9.21621 18.4455 9.21621 20.527V21.4696C9.21621 22.3369 9.91987 23.0405 10.7872 23.0405H20.2128C21.0801 23.0405 21.7838 22.3369 21.7838 21.4696V20.527C21.7838 18.4455 20.095 16.7568 18.0135 16.7568ZM10.6922 16.3182C10.3126 15.9418 9.79223 15.7095 9.21621 15.7095H7.12162C5.96632 15.7095 5.02702 16.6487 5.02702 17.804V18.8513C5.02702 19.4306 5.49503 19.8986 6.07432 19.8986H8.2311C8.43728 18.3473 9.37331 17.0415 10.6922 16.3182Z" fill="white"/>
<circle cx="15.5" cy="15.5" r="15" stroke="white"/>
</svg>
