<svg width="31" height="31" viewBox="0 0 31 31" fill="none" xmlns="http://www.w3.org/2000/svg">
<circle cx="15.5" cy="15.5" r="15" stroke="white"/>
<path d="M21.8165 9.32094C22.0876 9.32094 22.3074 9.10113 22.3074 8.83002V7.19362C22.3074 6.92251 22.0876 6.7027 21.8165 6.7027H9.70714C9.43603 6.7027 9.21622 6.92251 9.21622 7.19362V9.02426C9.21622 9.29537 9.43603 9.51518 9.70714 9.51518H13.1959C14.3131 9.51518 15.1703 9.92256 15.6902 10.6301H9.70714C9.43603 10.6301 9.21622 10.8499 9.21622 11.121V12.7574C9.21622 13.0285 9.43603 13.2483 9.70714 13.2483H16.2019C15.9476 14.7246 14.8535 15.6469 13.1436 15.6469H9.70714C9.43603 15.6469 9.21622 15.8668 9.21622 16.1379V18.3066C9.21622 18.4436 9.27349 18.5744 9.37417 18.6673L16.1265 24.9002C16.2171 24.9839 16.336 25.0304 16.4594 25.0304H19.837C20.2839 25.0304 20.4984 24.4819 20.17 24.1787L13.9974 18.4809C17.127 18.3852 19.3625 16.2966 19.656 13.2483H21.8165C22.0876 13.2483 22.3074 13.0285 22.3074 12.7574V11.121C22.3074 10.8499 22.0876 10.6301 21.8165 10.6301H19.4155C19.2729 10.1579 19.0768 9.71998 18.8325 9.32094H21.8165Z" fill="white"/>
</svg>
