<svg width="10" height="12" viewBox="0 0 10 12" fill="none" xmlns="http://www.w3.org/2000/svg">
<path d="M0.714286 10.6667C0.714286 11.4 1.35714 12 2.14286 12H7.85714C8.64286 12 9.28571 11.4 9.28571 10.6667V4C9.28571 3.26667 8.64286 2.66667 7.85714 2.66667H2.14286C1.35714 2.66667 0.714286 3.26667 0.714286 4V10.6667ZM2.97857 5.44667C3.25714 5.18667 3.70714 5.18667 3.98571 5.44667L5 6.39333L6.01429 5.44667C6.29286 5.18667 6.74286 5.18667 7.02143 5.44667C7.3 5.70667 7.3 6.12667 7.02143 6.38667L6.00714 7.33333L7.02143 8.28C7.3 8.54 7.3 8.96 7.02143 9.22C6.74286 9.48 6.29286 9.48 6.01429 9.22L5 8.27333L3.98571 9.22C3.70714 9.48 3.25714 9.48 2.97857 9.22C2.7 8.96 2.7 8.54 2.97857 8.28L3.99286 7.33333L2.97857 6.38667C2.7 6.13333 2.7 5.70667 2.97857 5.44667ZM7.5 0.666667L6.99286 0.193333C6.86429 0.0733333 6.67857 0 6.49286 0H3.50714C3.32143 0 3.13571 0.0733333 3.00714 0.193333L2.5 0.666667H0.714286C0.321429 0.666667 0 0.966667 0 1.33333C0 1.7 0.321429 2 0.714286 2H9.28571C9.67857 2 10 1.7 10 1.33333C10 0.966667 9.67857 0.666667 9.28571 0.666667H7.5Z" fill="#FF0000" fill-opacity="0.8"/>
</svg>
