<svg width="18" height="16" viewBox="0 0 18 16" fill="none" xmlns="http://www.w3.org/2000/svg">
<path d="M12.5813 2.59738L15.4 5.41668C15.5187 5.53546 15.5187 5.72924 15.4 5.84802L8.575 12.6744L5.675 12.9963C5.2875 13.04 4.95938 12.7119 5.00313 12.3243L5.325 9.42372L12.15 2.59738C12.2687 2.47861 12.4625 2.47861 12.5813 2.59738ZM17.6437 1.88162L16.1187 0.35632C15.6437 -0.118773 14.8719 -0.118773 14.3938 0.35632L13.2875 1.46279C13.1688 1.58156 13.1688 1.77535 13.2875 1.89412L16.1063 4.71342C16.225 4.83219 16.4188 4.83219 16.5375 4.71342L17.6437 3.60695C18.1187 3.12874 18.1187 2.35671 17.6437 1.88162ZM12 10.8177V13.9996H2V3.99766H9.18125C9.28125 3.99766 9.375 3.95702 9.44687 3.88826L10.6969 2.63802C10.9344 2.40047 10.7656 1.99727 10.4312 1.99727H1.5C0.671875 1.99727 0 2.66927 0 3.49756V14.4997C0 15.328 0.671875 16 1.5 16H12.5C13.3281 16 14 15.328 14 14.4997V9.56749C14 9.23305 13.5969 9.0674 13.3594 9.30182L12.1094 10.5521C12.0406 10.624 12 10.7177 12 10.8177Z" fill="#1976D2"/>
</svg>
