<svg width="10" height="13" viewBox="0 0 10 13" fill="none" xmlns="http://www.w3.org/2000/svg">
<path d="M5.83333 3.45312V0H0.625C0.278646 0 0 0.27168 0 0.609375V12.3906C0 12.7283 0.278646 13 0.625 13H9.375C9.72135 13 10 12.7283 10 12.3906V4.0625H6.45833C6.11458 4.0625 5.83333 3.78828 5.83333 3.45312ZM7.39844 6.15723L5.83333 8.53125L7.39844 10.9053C7.53125 11.1084 7.38281 11.375 7.13542 11.375H6.22656C6.11198 11.375 6.00521 11.3141 5.95052 11.215C5.4401 10.2959 5 9.4707 5 9.4707C4.83333 9.84648 4.73958 9.97852 4.04687 11.2176C3.99219 11.3166 3.88802 11.3775 3.77344 11.3775H2.86458C2.61719 11.3775 2.46875 11.1109 2.60156 10.9078L4.17188 8.53379L2.60156 6.15977C2.46615 5.95664 2.61719 5.69004 2.86458 5.69004H3.77083C3.88542 5.69004 3.99219 5.75098 4.04687 5.85C4.72656 7.08906 4.56771 6.70312 5 7.58926C5 7.58926 5.15885 7.29219 5.95312 5.85C6.00781 5.75098 6.11458 5.69004 6.22917 5.69004H7.13542C7.38281 5.6875 7.53125 5.9541 7.39844 6.15723ZM10 3.09512V3.25H6.66667V0H6.82552C6.99219 0 7.15104 0.0634766 7.26823 0.177734L9.81771 2.66602C9.9349 2.78027 10 2.93516 10 3.09512Z" fill="#16B061"/>
</svg>
