<svg width="278" height="106" viewBox="0 0 278 106" fill="none" xmlns="http://www.w3.org/2000/svg">
<path d="M120.919 0.56586C118.741 1.30956 116.775 2.47822 115.075 4.01874C113.376 5.55927 111.994 7.3654 111.038 9.43713C109.604 12.9432 109.338 16.8741 110.295 20.5395L110.985 22.93L112.738 22.6644C116.032 21.9207 119.06 20.327 121.503 18.0428C123.309 16.2367 124.637 14.0056 125.381 11.562C126.125 9.11841 126.337 6.51545 125.912 4.01874C125.7 2.90319 125.434 1.78766 125.062 0.672105C124.637 -0.177839 123.044 -0.230962 120.919 0.56586Z" fill="#16B061"/>
<path d="M90.6926 6.09043C89.5771 9.80893 89.6833 13.793 90.9582 17.5115C92.7644 22.1862 98.2889 26.6484 102.964 27.2859C104.557 27.4984 104.663 27.4453 105.142 26.1172C105.885 24.0986 106.257 21.9737 106.204 19.8489C106.151 17.724 105.62 15.5992 104.77 13.6868C103.867 11.7213 102.645 10.0214 101.051 8.53401C99.5107 7.09973 97.6515 5.93106 95.6329 5.24048C91.6488 3.85932 91.5957 3.85932 90.6926 6.09043Z" fill="#16B061"/>
<path d="M30.9314 41.9476C35.1811 44.4443 37.0935 49.119 37.0935 56.9809C37.0935 67.6052 33.4281 72.8643 25.7787 73.3424C19.7229 73.6611 16.2169 71.5893 13.6139 66.1178C12.2328 63.3024 12.2328 63.143 12.2328 57.1934C12.2328 51.8813 12.339 50.872 13.189 48.8002C14.4639 45.5598 16.9074 42.9037 20.0416 41.4163C23.6007 40.1414 27.5317 40.3008 30.9314 41.9476ZM17.0668 31.217C13.667 32.2263 10.586 34.0325 7.98308 36.4229C5.38015 38.8134 3.36154 41.7882 2.08663 45.0286C-0.78191 52.9437 -0.675663 61.5494 2.29912 69.4114C3.999 73.2892 6.60195 76.7421 9.94858 79.3982C13.7202 82.1605 16.3762 83.0636 21.7946 83.2761C26.9473 83.4885 30.4002 82.798 33.5875 81.0981C34.2249 80.7262 34.9155 80.3544 35.6061 80.0357C35.9779 80.0357 35.7123 87.0477 35.3405 88.5351C34.8093 89.8631 33.9593 91.0849 32.95 92.0411C31.9407 92.9973 30.6658 93.7941 29.3378 94.3253C27.6379 94.8034 25.9381 95.069 24.1851 95.0159C22.5383 95.1221 20.9447 94.8566 19.4041 94.2191C17.9167 93.5816 16.5356 92.6254 15.4732 91.4036L14.1452 89.81L9.15176 92.2536C7.34564 92.9973 5.64575 94.0066 4.15836 95.2284C5.00829 96.5564 6.01759 97.7782 7.18626 98.8407C12.339 104.047 17.6511 106.012 25.7787 105.64C35.128 105.215 41.8744 101.762 44.9023 95.8127C46.9209 91.8286 46.974 90.8193 46.974 60.2745V31.6951H37.4122V33.3419C37.4653 33.9262 37.4122 34.4574 37.2529 34.9887C37.1466 34.9887 36.1373 34.2981 34.9155 33.5544C31.4626 31.3233 27.4254 30.2609 23.3351 30.4733C21.2103 30.5796 19.1385 30.7921 17.0668 31.217Z" fill="#16B061"/>
<path d="M110.613 41.6287C112.313 42.2661 113.854 43.2754 115.129 44.5504C116.403 45.8253 117.413 47.3658 118.103 49.0657C118.953 51.2437 119.06 52.253 119.06 56.9808C119.06 61.6024 118.953 62.7179 118.156 64.7365C117.253 67.6582 115.288 70.0487 112.632 71.5361C110.613 72.6516 110.029 72.7579 106.417 72.7579C102.911 72.7579 102.22 72.6516 100.042 71.5361C95.8455 69.5175 93.5613 65.1615 93.1895 58.5213C92.9239 52.8373 93.9863 48.322 96.483 45.1878C99.2984 41.4693 105.195 40.035 110.613 41.6287ZM99.0328 31.3231C95.8455 32.2262 92.9239 33.7667 90.3741 35.8384C87.8243 37.9102 85.7525 40.5131 84.212 43.4348C82.034 47.5783 81.0247 52.253 81.2372 56.9808C81.2903 65.6927 83.2558 71.1111 88.4617 76.3701C93.3489 81.3635 98.5016 83.3822 105.992 83.3822C113.747 83.3822 118.741 81.4167 123.628 76.5826C128.781 71.3767 131.012 65.4802 131.012 56.9808C131.118 54.3778 130.852 51.828 130.321 49.2782C129.312 44.9753 127.134 40.9912 124.053 37.8039C120.972 34.6166 117.041 32.3324 112.738 31.2169C108.276 30.3138 103.601 30.3669 99.0328 31.3231Z" fill="#16B061"/>
<path d="M208.462 41.4164C211.384 42.8507 213.243 45.8255 214.146 50.394L214.412 51.7751H189.657L189.923 50.2877C190.295 48.4816 190.986 46.7817 192.101 45.2412C193.164 43.7538 194.598 42.532 196.191 41.6289C200.122 39.929 204.531 39.8759 208.462 41.4164ZM195.66 31.2171C191.835 32.1733 188.276 34.1388 185.408 36.848C180.149 41.9476 177.758 47.5254 177.44 55.7061C177.174 61.9213 177.918 65.5867 180.202 70.2614C181.53 73.0237 183.442 75.4673 185.727 77.4859C188.011 79.5045 190.72 81.045 193.588 82.0012C198.582 83.4886 203.841 83.7542 208.94 82.7981C213.137 81.8419 217.015 79.6639 219.99 76.5829C223.071 73.5018 225.621 69.4114 224.664 69.0396C224.399 68.9334 221.849 68.1897 219.193 67.3397C214.518 65.9054 214.199 65.9054 213.828 66.596C213.031 67.6584 212.181 68.6677 211.225 69.5708C210.056 70.8988 208.516 71.855 206.869 72.3331C202.141 73.7674 196.829 72.8112 193.801 70.0489C191.623 67.7647 190.189 64.9492 189.604 61.8682L189.339 60.1152H225.621L225.886 59.2121C226.364 57.8841 225.727 51.2439 224.824 47.791C223.814 43.5944 221.69 39.7697 218.609 36.7949C214.146 32.3327 209.419 30.5797 202.141 30.6328C199.963 30.5797 197.785 30.7921 195.66 31.2171Z" fill="#16B061"/>
<path d="M256.909 41.0974C263.708 43.541 267.268 52.1466 265.355 61.7085C263.815 69.2518 260.362 72.8109 254.253 73.289C251.225 73.6608 248.197 72.9703 245.647 71.3235C243.31 69.0924 241.716 66.2238 241.026 63.0365C240.441 58.9993 240.441 54.8558 241.026 50.8186C241.982 46.3033 244.957 42.3723 248.25 41.1505C251.066 40.4599 254.04 40.4068 256.909 41.0974ZM249.313 30.8449C246.869 31.4824 244.532 32.5448 242.407 33.926L240.601 35.1478V31.8011H230.614V104.578H241.822V79.6105L243.416 80.6198C244.585 81.3103 245.807 81.8947 247.082 82.3728C251.278 83.3821 255.581 83.5414 259.831 82.9571C267.958 81.3103 275.076 73.6077 276.989 64.4708C277.786 59.5305 277.786 54.5371 276.989 49.5968C276.192 45.3471 274.226 41.363 271.358 38.1226C268.489 34.8822 264.771 32.4917 260.627 31.2168C256.856 30.5262 253.031 30.42 249.313 30.8449Z" fill="#16B061"/>
<path d="M73.7471 31.8014C69.6037 32.4388 65.8321 34.5106 63.176 37.751L61.9011 39.3978V31.8014H51.9143V82.1605H63.1229V67.8708C63.1229 54.7498 63.2291 53.3687 63.9728 50.872C64.4509 49.2252 65.3009 47.6847 66.4695 46.3567C67.5851 45.0286 69.0193 43.9662 70.5598 43.2225C72.4191 42.2663 74.4908 41.8413 76.6157 42.0538H80.2279V31.9607L78.953 31.6951C77.2 31.3233 75.447 31.3764 73.7471 31.8014Z" fill="#16B061"/>
<path d="M134.89 36.6353L134.996 41.5225L146.789 41.6287C153.216 41.6818 158.528 41.8412 158.528 41.9475C158.528 42.0537 152.685 50.7125 145.567 61.1243C138.449 71.5892 132.552 80.5668 132.446 81.098L132.287 82.0542H175.209V72.0673H162.725C155.872 72.0673 150.242 71.9611 150.242 71.908C150.242 71.8017 156.138 63.0898 163.362 52.5186C170.534 42.0006 176.483 32.9699 176.483 32.545C176.483 31.695 176.058 31.695 155.66 31.695H134.783L134.89 36.6353Z" fill="#16B061"/>
</svg>
