<svg width="22" height="22" viewBox="0 0 22 22" fill="none" xmlns="http://www.w3.org/2000/svg">
<path d="M21.5825 6.86227L11.5278 0.15912C11.1847 -0.0520721 10.8184 -0.0540057 10.4721 0.15912L0.417398 6.86227C0.159586 7.0341 0 7.34107 0 7.64795V14.3511C0 14.658 0.159586 14.9649 0.417441 15.1368L10.4721 21.8409C10.8153 22.0521 11.1816 22.054 11.5279 21.8409L21.5826 15.1368C21.8404 14.965 22 14.658 22 14.3511V7.64795C22 7.34107 21.8404 7.0341 21.5825 6.86227ZM11.9453 2.71263L19.3482 7.64795L16.0457 9.8578L11.9453 7.12004V2.71263ZM10.0547 2.71263V7.12004L5.95421 9.8578L2.65177 7.64795L10.0547 2.71263ZM1.89062 9.41582L4.26004 10.9995L1.89062 12.5832V9.41582ZM10.0547 19.2864L2.65177 14.3511L5.95421 12.1413L10.0547 14.879V19.2864ZM11 13.2339L7.66067 10.9995L11 8.76515L14.3393 10.9995L11 13.2339ZM11.9453 19.2864V14.879L16.0457 12.1413L19.3482 14.3511L11.9453 19.2864ZM20.1093 12.5832L17.7399 10.9995L20.1093 9.41582V12.5832Z" fill="#1976D2"/>
</svg>
