<svg width="14" height="14" viewBox="0 0 14 14" fill="none" xmlns="http://www.w3.org/2000/svg">
<path d="M13.7343 4.3669L7.3359 0.101258C7.11751 -0.0331368 6.88443 -0.0343673 6.66404 0.101258L0.265617 4.3669C0.101554 4.47625 0 4.67159 0 4.86688V9.13249C0 9.32781 0.101554 9.52313 0.265644 9.6325L6.66407 13.8987C6.88246 14.0331 7.11554 14.0344 7.33593 13.8987L13.7344 9.6325C13.8984 9.52315 14 9.32781 14 9.13249V4.86688C14 4.67159 13.8984 4.47625 13.7343 4.3669ZM7.60155 1.72622L12.3125 4.86688L10.2109 6.27315L7.60155 4.53093V1.72622ZM6.39843 1.72622V4.53093L3.78904 6.27315L1.68749 4.86688L6.39843 1.72622ZM1.20312 5.99189L2.71094 6.9997L1.20312 8.00751V5.99189ZM6.39843 12.2732L1.68749 9.13252L3.78904 7.72625L6.39843 9.46846V12.2732ZM6.99999 8.42158L4.87497 6.9997L6.99999 5.57782L9.125 6.9997L6.99999 8.42158ZM7.60155 12.2732V9.46846L10.2109 7.72625L12.3125 9.13252L7.60155 12.2732ZM12.7969 8.00751L11.289 6.9997L12.7969 5.99189V8.00751Z" fill="white"/>
</svg>
