<svg width="11" height="15" viewBox="0 0 11 15" fill="none" xmlns="http://www.w3.org/2000/svg">
<path d="M10.7995 3.07617L7.99505 0.205078C7.86615 0.0732422 7.69141 0 7.50807 0H7.33333V3.75H11V3.57129C11 3.38672 10.9284 3.20801 10.7995 3.07617ZM6.41667 3.98438V0H0.6875C0.30651 0 0 0.313477 0 0.703125V14.2969C0 14.6865 0.30651 15 0.6875 15H10.3125C10.6935 15 11 14.6865 11 14.2969V4.6875H7.10417C6.72604 4.6875 6.41667 4.37109 6.41667 3.98438ZM8.25 8.67188V10.0781C8.25 10.207 8.14688 10.3125 8.02083 10.3125H6.41667V11.9531C6.41667 12.082 6.31354 12.1875 6.1875 12.1875H4.8125C4.68646 12.1875 4.58333 12.082 4.58333 11.9531V10.3125H2.97917C2.85313 10.3125 2.75 10.207 2.75 10.0781V8.67188C2.75 8.54297 2.85313 8.4375 2.97917 8.4375H4.58333V6.79688C4.58333 6.66797 4.68646 6.5625 4.8125 6.5625H6.1875C6.31354 6.5625 6.41667 6.66797 6.41667 6.79688V8.4375H8.02083C8.14688 8.4375 8.25 8.54297 8.25 8.67188Z" fill="white"/>
</svg>
