<svg width="358" height="136" viewBox="0 0 358 136" fill="none" xmlns="http://www.w3.org/2000/svg">
<path d="M156.306 0.728178C153.503 1.68521 150.974 3.18911 148.787 5.17153C146.599 7.15396 144.822 9.47819 143.591 12.1442C141.746 16.6559 141.404 21.7145 142.634 26.4314L143.523 29.5075L145.779 29.1657C150.017 28.2087 153.914 26.1579 157.058 23.2185C159.382 20.8943 161.091 18.0231 162.048 14.8786C163.005 11.7341 163.279 8.38443 162.732 5.17153C162.458 3.73598 162.117 2.30045 161.638 0.864901C161.091 -0.228852 159.041 -0.297215 156.306 0.728178Z" fill="white"/>
<path d="M117.41 7.83759C115.974 12.6228 116.111 17.7497 117.752 22.5349C120.076 28.5505 127.185 34.2927 133.201 35.113C135.252 35.3865 135.389 35.3181 136.004 33.6091C136.961 31.0115 137.439 28.2771 137.371 25.5427C137.303 22.8083 136.619 20.074 135.525 17.613C134.363 15.0837 132.791 12.8962 130.74 10.9821C128.758 9.13642 126.365 7.63251 123.767 6.74384C118.641 4.96649 118.572 4.96649 117.41 7.83759Z" fill="white"/>
<path d="M40.5059 53.9804C45.9746 57.1933 48.4356 63.2089 48.4356 73.3261C48.4356 86.998 43.7187 93.7657 33.875 94.3809C26.0821 94.791 21.5704 92.125 18.2208 85.084C16.4434 81.4609 16.4435 81.2558 16.4435 73.5996C16.4435 66.7636 16.5802 65.4648 17.6739 62.7988C19.3146 58.6288 22.459 55.2109 26.4922 53.2968C31.0723 51.6562 36.1309 51.8613 40.5059 53.9804ZM22.6641 40.1718C18.2891 41.4706 14.3243 43.7948 10.9747 46.871C7.62512 49.9472 5.02747 53.7753 3.38685 57.9452C-0.304543 68.1308 -0.167819 79.2051 3.66029 89.3223C5.84779 94.3125 9.1974 98.7559 13.504 102.174C18.3575 105.729 21.7755 106.891 28.7481 107.164C35.3789 107.438 39.8223 106.549 43.9238 104.361C44.7441 103.883 45.6328 103.404 46.5215 102.994C47 102.994 46.6582 112.018 46.1797 113.932C45.4961 115.641 44.4023 117.213 43.1035 118.443C41.8047 119.674 40.1641 120.699 38.4551 121.383C36.2676 121.998 34.0801 122.34 31.8243 122.272C29.7051 122.408 27.6544 122.067 25.6719 121.246C23.7579 120.426 21.9806 119.195 20.6134 117.623L18.9044 115.572L12.4786 118.717C10.1544 119.674 7.96691 120.973 6.05285 122.545C7.1466 124.254 8.44542 125.826 9.94932 127.193C16.5802 133.893 23.4161 136.422 33.875 135.943C45.9062 135.397 54.5878 130.953 58.4843 123.297C61.082 118.17 61.1503 116.871 61.1503 77.5644V40.787H48.8457V42.9061C48.9141 43.6581 48.8457 44.3417 48.6406 45.0253C48.5039 45.0253 47.2051 44.1366 45.6328 43.1796C41.1895 40.3085 35.9942 38.9413 30.7305 39.2147C27.9961 39.3515 25.3301 39.6249 22.6641 40.1718Z" fill="white"/>
<path d="M143.044 53.5701C145.232 54.3904 147.214 55.6892 148.855 57.3298C150.496 58.9705 151.794 60.9529 152.683 63.1404C153.777 65.9432 153.914 67.242 153.914 73.326C153.914 79.2733 153.777 80.7088 152.751 83.3065C151.589 87.0662 149.06 90.1424 145.642 92.0565C143.044 93.4921 142.292 93.6288 137.644 93.6288C133.132 93.6288 132.244 93.4921 129.441 92.0565C124.041 89.4588 121.101 83.8534 120.623 75.3084C120.281 67.9939 121.648 62.1834 124.861 58.1501C128.484 53.365 136.072 51.5193 143.044 53.5701ZM128.142 40.3083C124.041 41.4704 120.281 43.4529 117 46.1189C113.718 48.7849 111.052 52.1345 109.07 55.8943C106.267 61.2263 104.968 67.242 105.242 73.326C105.31 84.5369 107.839 91.5096 114.539 98.2772C120.828 104.703 127.458 107.301 137.097 107.301C147.078 107.301 153.503 104.771 159.792 98.5507C166.423 91.8514 169.294 84.2635 169.294 73.326C169.431 69.9764 169.089 66.6951 168.406 63.4138C167.107 57.8767 164.304 52.7497 160.339 48.6482C156.374 44.5466 151.316 41.6072 145.779 40.1716C140.037 39.0095 134.021 39.0779 128.142 40.3083Z" fill="white"/>
<path d="M268.962 53.2968C272.722 55.1426 275.114 58.9707 276.276 64.8496L276.618 66.627H244.763L245.105 64.7129C245.583 62.3887 246.472 60.2012 247.907 58.2187C249.275 56.3047 251.12 54.7324 253.171 53.5703C258.23 51.3828 263.903 51.3144 268.962 53.2968ZM252.488 40.1718C247.566 41.4023 242.986 43.9316 239.294 47.4179C232.527 53.9804 229.45 61.1582 229.04 71.6856C228.699 79.6837 229.656 84.4004 232.595 90.4161C234.304 93.9708 236.765 97.1153 239.704 99.713C242.644 102.311 246.13 104.293 249.822 105.524C256.247 107.438 263.015 107.779 269.577 106.549C274.978 105.318 279.968 102.516 283.796 98.5509C287.761 94.586 291.042 89.3223 289.812 88.8438C289.47 88.7071 286.189 87.7501 282.771 86.6563C276.755 84.8106 276.345 84.8106 275.866 85.6993C274.841 87.0665 273.747 88.3653 272.517 89.5274C271.013 91.2364 269.03 92.4669 266.911 93.0821C260.827 94.9278 253.991 93.6973 250.095 90.1426C247.292 87.2032 245.447 83.5801 244.695 79.6153L244.353 77.3594H291.042L291.384 76.1973C291.999 74.4883 291.179 65.9434 290.017 61.5C288.718 56.0996 285.984 51.1777 282.019 47.3496C276.277 41.6074 270.193 39.3515 260.827 39.4199C258.025 39.3515 255.222 39.625 252.488 40.1718Z" fill="white"/>
<path d="M331.306 52.8863C340.056 56.0309 344.636 67.1051 342.175 79.4098C340.192 89.1169 335.749 93.697 327.888 94.3122C323.991 94.7907 320.095 93.902 316.814 91.7829C313.806 88.9118 311.755 85.2204 310.866 81.1188C310.114 75.9235 310.114 70.5914 310.866 65.3961C312.097 59.5855 315.925 54.5269 320.163 52.9547C323.786 52.066 327.614 51.9976 331.306 52.8863ZM321.53 39.6929C318.386 40.5132 315.378 41.8804 312.644 43.6578L310.32 45.23V40.9234H297.468V134.576H311.892V102.447L313.943 103.746C315.446 104.634 317.019 105.386 318.659 106.002C324.06 107.3 329.597 107.506 335.066 106.754C345.525 104.634 354.685 94.7224 357.146 82.9645C358.171 76.6071 358.171 70.1813 357.146 63.8238C356.12 58.3551 353.591 53.2281 349.899 49.0582C346.208 44.8882 341.423 41.8121 336.091 40.1714C331.237 39.2828 326.316 39.1461 321.53 39.6929Z" fill="white"/>
<path d="M95.6032 40.9237C90.2712 41.744 85.4177 44.41 81.9997 48.5799L80.3591 50.6991V40.9237H67.5076V105.729H81.9314V87.3398C81.9314 70.455 82.0681 68.6776 83.0251 65.4647C83.6404 63.3456 84.7341 61.3632 86.238 59.6542C87.6736 57.9452 89.5192 56.578 91.5016 55.621C93.8942 54.3905 96.5602 53.8436 99.2946 54.1171H103.943V41.1287L102.302 40.7869C100.047 40.3084 97.7907 40.3768 95.6032 40.9237Z" fill="white"/>
<path d="M174.285 47.1443L174.422 53.4334L189.597 53.5701C197.869 53.6385 204.705 53.8435 204.705 53.9803C204.705 54.117 197.185 65.2596 188.025 78.658C178.865 92.1249 171.277 103.678 171.14 104.361L170.935 105.592H226.17V92.7401H210.105C201.287 92.7401 194.041 92.6034 194.041 92.535C194.041 92.3983 201.629 81.1873 210.925 67.5838C220.154 54.0486 227.81 42.4275 227.81 41.8806C227.81 40.7869 227.263 40.7869 201.013 40.7869H174.148L174.285 47.1443Z" fill="white"/>
</svg>
