<svg width="17" height="15" viewBox="0 0 17 15" fill="none" xmlns="http://www.w3.org/2000/svg">
<path d="M16.5278 8.4375H14.1667V11.25L13.2222 10.626L12.2778 11.25V8.4375H9.91667C9.65694 8.4375 9.44444 8.64844 9.44444 8.90625V14.5312C9.44444 14.7891 9.65694 15 9.91667 15H16.5278C16.7875 15 17 14.7891 17 14.5312V8.90625C17 8.64844 16.7875 8.4375 16.5278 8.4375ZM5.19444 6.5625H11.8056C12.0653 6.5625 12.2778 6.35156 12.2778 6.09375V0.46875C12.2778 0.210938 12.0653 0 11.8056 0H9.44444V2.8125L8.5 2.18848L7.55556 2.8125V0H5.19444C4.93472 0 4.72222 0.210938 4.72222 0.46875V6.09375C4.72222 6.35156 4.93472 6.5625 5.19444 6.5625ZM7.08333 8.4375H4.72222V11.25L3.77778 10.626L2.83333 11.25V8.4375H0.472222C0.2125 8.4375 0 8.64844 0 8.90625V14.5312C0 14.7891 0.2125 15 0.472222 15H7.08333C7.34306 15 7.55556 14.7891 7.55556 14.5312V8.90625C7.55556 8.64844 7.34306 8.4375 7.08333 8.4375Z" fill="white"/>
</svg>
