<svg width="10" height="13" viewBox="0 0 10 13" fill="none" xmlns="http://www.w3.org/2000/svg">
<path d="M4.73698 6.50254C4.60677 6.09629 4.60937 5.31172 4.6849 5.31172C4.90365 5.31172 4.88281 6.24863 4.73698 6.50254ZM4.69271 7.70098C4.49219 8.21387 4.24219 8.80039 3.95312 9.29297C4.42969 9.11523 4.96875 8.85625 5.59115 8.73691C5.26042 8.49316 4.94271 8.14277 4.69271 7.70098ZM2.24219 10.8697C2.24219 10.89 2.58594 10.7326 3.15104 9.84902C2.97656 10.009 2.39323 10.4711 2.24219 10.8697ZM6.45833 4.0625H10V12.3906C10 12.7283 9.72135 13 9.375 13H0.625C0.278646 13 0 12.7283 0 12.3906V0.609375C0 0.27168 0.278646 0 0.625 0H5.83333V3.45312C5.83333 3.78828 6.11458 4.0625 6.45833 4.0625ZM6.25 8.42461C5.72917 8.11484 5.38281 7.68828 5.13802 7.05859C5.25521 6.58887 5.4401 5.87539 5.29948 5.42852C5.17708 4.68203 4.19531 4.75566 4.05469 5.25586C3.92448 5.72051 4.04427 6.37559 4.26562 7.21094C3.96354 7.91172 3.51823 8.85117 3.20312 9.38945C3.20052 9.38945 3.20052 9.39199 3.19792 9.39199C2.49219 9.74492 1.28125 10.5219 1.77865 11.1186C1.92448 11.2937 2.19531 11.3725 2.33854 11.3725C2.80469 11.3725 3.26823 10.9154 3.92969 9.80332C4.60156 9.5875 5.33854 9.31836 5.98698 9.21426C6.55208 9.51387 7.21354 9.70937 7.65365 9.70937C8.41406 9.70937 8.46615 8.89688 8.16667 8.60742C7.80469 8.26211 6.7526 8.36113 6.25 8.42461ZM9.81771 2.66602L7.26562 0.177734C7.14844 0.0634766 6.98958 0 6.82292 0H6.66667V3.25H10V3.09512C10 2.93516 9.9349 2.78027 9.81771 2.66602ZM7.88802 9.14824C7.99479 9.07969 7.82292 8.84609 6.77344 8.91973C7.73958 9.3209 7.88802 9.14824 7.88802 9.14824Z" fill="#FF3333"/>
</svg>
