<svg width="6" height="11" viewBox="0 0 6 11" fill="none" xmlns="http://www.w3.org/2000/svg">
<path d="M2.33333 6.80939V10.1758L2.79208 10.8853C2.89104 11.0382 3.10917 11.0382 3.20813 10.8853L3.66667 10.1758V6.80939C3.45021 6.85064 3.22792 6.87513 3 6.87513C2.77208 6.87513 2.54979 6.85064 2.33333 6.80939ZM3 0C1.34313 0 0 1.38512 0 3.09381C0 4.8025 1.34313 6.18762 3 6.18762C4.65688 6.18762 6 4.8025 6 3.09381C6 1.38512 4.65688 0 3 0ZM3 1.63284C2.21875 1.63284 1.58333 2.28813 1.58333 3.09381C1.58333 3.23604 1.47125 3.35163 1.33333 3.35163C1.19542 3.35163 1.08333 3.23604 1.08333 3.09381C1.08333 2.00389 1.94333 1.11721 3 1.11721C3.13792 1.11721 3.25 1.2328 3.25 1.37503C3.25 1.51726 3.13792 1.63284 3 1.63284Z" fill="white"/>
</svg>
