<svg width="13" height="13" viewBox="0 0 13 13" fill="none" xmlns="http://www.w3.org/2000/svg">
<path d="M11.375 4.875V1.96143C11.375 1.74586 11.2894 1.53943 11.1371 1.38684L9.98791 0.23791C9.83557 0.0855664 9.62889 0 9.41332 0H2.4375C1.98885 0 1.625 0.363848 1.625 0.8125V4.875C0.727441 4.875 0 5.60244 0 6.5V9.34375C0 9.5682 0.181797 9.75 0.40625 9.75H1.625V12.1875C1.625 12.6362 1.98885 13 2.4375 13H10.5625C11.0112 13 11.375 12.6362 11.375 12.1875V9.75H12.5938C12.8182 9.75 13 9.5682 13 9.34375V6.5C13 5.60244 12.2726 4.875 11.375 4.875ZM9.75 11.375H3.25V8.9375H9.75V11.375ZM9.75 5.6875H3.25V1.625H8.125V2.84375C8.125 3.0682 8.3068 3.25 8.53125 3.25H9.75V5.6875ZM10.9688 7.51562C10.6323 7.51562 10.3594 7.24268 10.3594 6.90625C10.3594 6.56957 10.6323 6.29688 10.9688 6.29688C11.3052 6.29688 11.5781 6.56957 11.5781 6.90625C11.5781 7.24268 11.3052 7.51562 10.9688 7.51562Z" fill="#666666"/>
</svg>
