<svg width="17" height="17" viewBox="0 0 17 17" fill="none" xmlns="http://www.w3.org/2000/svg">
<path d="M6.64026 9.56084H2.92079C2.2101 9.56084 1.85476 10.4175 2.35622 10.9222L3.44882 11.9515L0.154425 15.2485C-0.0514749 15.4544 -0.0514749 15.7931 0.154425 15.9989L0.997949 16.8423C1.20385 17.0481 1.54259 17.0481 1.74849 16.8423L5.0462 13.5452L6.07902 14.6409C6.58048 15.1423 7.43729 14.787 7.43729 14.0765V10.3577C7.43729 9.91611 7.08195 9.56084 6.64026 9.56084ZM10.3597 7.43584H14.0792C14.7899 7.43584 15.1452 6.57588 14.6438 6.07451L13.5479 5.04521L16.8456 1.74814C17.0515 1.54229 17.0515 1.20361 16.8456 0.997754L16.0021 0.154395C15.7962 -0.0514648 15.4574 -0.0514648 15.2515 0.154395L11.9538 3.45146L10.921 2.35576C10.4195 1.85439 9.56271 2.20967 9.56271 2.92021V6.63896C9.56271 7.08057 9.91805 7.43584 10.3597 7.43584ZM13.5479 11.9515L14.6438 10.9188C15.1452 10.4175 14.7899 9.56084 14.0792 9.56084H10.3597C9.91805 9.56084 9.56271 9.91611 9.56271 10.3577V14.0765C9.56271 14.787 10.4228 15.1423 10.9243 14.6409L11.9538 13.5485L15.2515 16.8456C15.4574 17.0515 15.7962 17.0515 16.0021 16.8456L16.8456 16.0022C17.0515 15.7964 17.0515 15.4577 16.8456 15.2519L13.5479 11.9515ZM6.0757 2.35908L5.0462 3.45146L1.74849 0.154395C1.54259 -0.0514648 1.20385 -0.0514648 0.997949 0.154395L0.154425 0.997754C-0.0514749 1.20361 -0.0514749 1.54229 0.154425 1.74814L3.45214 5.04521L2.35622 6.07783C1.85476 6.5792 2.2101 7.43584 2.92079 7.43584H6.64026C7.08195 7.43584 7.43729 7.08057 7.43729 6.63896V2.92021C7.43729 2.21299 6.57716 1.85771 6.0757 2.35908Z" fill="white"/>
</svg>
