<svg width="15" height="12" viewBox="0 0 15 12" fill="none" xmlns="http://www.w3.org/2000/svg">
<path d="M12.0036 4.48905L11.8114 4.82534C11.741 4.94998 11.591 5.00172 11.4574 4.95233C11.1808 4.84886 10.9277 4.7007 10.705 4.51492C10.5972 4.42556 10.5691 4.26799 10.6394 4.14571L10.8316 3.80942C10.6699 3.62128 10.5433 3.40258 10.4589 3.16506H10.0721C9.93151 3.16506 9.80962 3.06394 9.78618 2.92284C9.73931 2.64064 9.73696 2.34433 9.78618 2.05037C9.80962 1.90927 9.93151 1.80579 10.0721 1.80579H10.4589C10.5433 1.56827 10.6699 1.34957 10.8316 1.16143L10.6394 0.825146C10.5691 0.702859 10.5948 0.545297 10.705 0.455933C10.9277 0.270151 11.1832 0.121996 11.4574 0.0185222C11.591 -0.0308629 11.741 0.0208738 11.8114 0.145512L12.0036 0.481802C12.2497 0.43712 12.5005 0.43712 12.7466 0.481802L12.9388 0.145512C13.0091 0.0208738 13.1591 -0.0308629 13.2927 0.0185222C13.5693 0.121996 13.8225 0.270151 14.0451 0.455933C14.153 0.545297 14.1811 0.702859 14.1108 0.825146L13.9186 1.16143C14.0803 1.34957 14.2069 1.56827 14.2912 1.80579H14.678C14.8186 1.80579 14.9405 1.90691 14.964 2.04802C15.0108 2.33022 15.0132 2.62653 14.964 2.92049C14.9405 3.06159 14.8186 3.16506 14.678 3.16506H14.2912C14.2069 3.40258 14.0803 3.62128 13.9186 3.80942L14.1108 4.14571C14.1811 4.26799 14.1553 4.42556 14.0451 4.51492C13.8225 4.7007 13.567 4.84886 13.2927 4.95233C13.1591 5.00172 13.0091 4.94998 12.9388 4.82534L12.7466 4.48905C12.5028 4.53373 12.2497 4.53373 12.0036 4.48905ZM11.7574 3.10627C12.6599 3.80236 13.6889 2.76998 12.995 1.86458C12.0926 1.16614 11.0636 2.20087 11.7574 3.10627ZM9.05487 6.72549L9.84478 7.12057C10.0815 7.25697 10.1847 7.54622 10.0909 7.80491C9.88229 8.37401 9.4721 8.89608 9.09238 9.35231C8.91893 9.56161 8.6189 9.61334 8.38216 9.47695L7.70007 9.08187C7.32504 9.40404 6.88907 9.66038 6.41325 9.82735V10.6175C6.41325 10.8903 6.2187 11.1255 5.95149 11.1725C5.37488 11.2713 4.77014 11.276 4.17244 11.1725C3.90289 11.1255 3.70365 10.8927 3.70365 10.6175V9.82735C3.22783 9.65803 2.79186 9.40404 2.41683 9.08187L1.73474 9.4746C1.50034 9.61099 1.19798 9.55926 1.02452 9.34996C0.644805 8.89373 0.24399 8.37166 0.0353792 7.80491C-0.0583785 7.54858 0.044755 7.25932 0.281493 7.12057L1.06203 6.72549C0.970613 6.23399 0.970613 5.72838 1.06203 5.23453L0.281493 4.8371C0.044755 4.7007 -0.0607224 4.41145 0.0353792 4.15511C0.24399 3.58601 0.644805 3.06394 1.02452 2.60771C1.19798 2.39841 1.498 2.34668 1.73474 2.48307L2.41683 2.87816C2.79186 2.55598 3.22783 2.29964 3.70365 2.13268V1.34016C3.70365 1.06972 3.89585 0.834552 4.16306 0.787519C4.73967 0.688749 5.34676 0.684045 5.94446 0.785167C6.21401 0.832201 6.41325 1.06502 6.41325 1.34016V2.13032C6.88907 2.29964 7.32504 2.55362 7.70007 2.8758L8.38216 2.48072C8.61656 2.34433 8.91893 2.39606 9.09238 2.60536C9.4721 3.06159 9.87057 3.58366 10.0792 4.15276C10.1729 4.40909 10.0815 4.69835 9.84478 4.8371L9.05487 5.23218C9.14629 5.72603 9.14629 6.23164 9.05487 6.72549ZM6.2984 7.22169C7.68601 5.41091 5.62568 3.34379 3.82085 4.73598C2.43323 6.54676 4.49356 8.61388 6.2984 7.22169ZM12.0036 11.5182L11.8114 11.8545C11.741 11.9791 11.591 12.0309 11.4574 11.9815C11.1808 11.878 10.9277 11.7298 10.705 11.5441C10.5972 11.4547 10.5691 11.2971 10.6394 11.1749L10.8316 10.8386C10.6699 10.6504 10.5433 10.4317 10.4589 10.1942H10.0721C9.93151 10.1942 9.80962 10.0931 9.78618 9.95198C9.73931 9.66978 9.73696 9.37347 9.78618 9.07951C9.80962 8.93841 9.93151 8.83494 10.0721 8.83494H10.4589C10.5433 8.59742 10.6699 8.37872 10.8316 8.19058L10.6394 7.85429C10.5691 7.73201 10.5948 7.57444 10.705 7.48508C10.9277 7.2993 11.1832 7.15114 11.4574 7.04767C11.591 6.99828 11.741 7.05002 11.8114 7.17466L12.0036 7.51095C12.2497 7.46627 12.5005 7.46627 12.7466 7.51095L12.9388 7.17466C13.0091 7.05002 13.1591 6.99828 13.2927 7.04767C13.5693 7.15114 13.8225 7.2993 14.0451 7.48508C14.153 7.57444 14.1811 7.73201 14.1108 7.85429L13.9186 8.19058C14.0803 8.37872 14.2069 8.59742 14.2912 8.83494H14.678C14.8186 8.83494 14.9405 8.93606 14.964 9.07716C15.0108 9.35936 15.0132 9.65567 14.964 9.94963C14.9405 10.0907 14.8186 10.1942 14.678 10.1942H14.2912C14.2069 10.4317 14.0803 10.6504 13.9186 10.8386L14.1108 11.1749C14.1811 11.2971 14.1553 11.4547 14.0451 11.5441C13.8225 11.7298 13.567 11.878 13.2927 11.9815C13.1591 12.0309 13.0091 11.9791 12.9388 11.8545L12.7466 11.5182C12.5028 11.5629 12.2497 11.5629 12.0036 11.5182ZM11.7574 10.1331C12.6599 10.8292 13.6889 9.79677 12.995 8.89138C12.0926 8.19529 11.0636 9.22767 11.7574 10.1331Z" fill="white"/>
</svg>
