<svg width="13" height="13" viewBox="0 0 13 13" fill="none" xmlns="http://www.w3.org/2000/svg">
<path d="M12.7364 2.33873L6.78539 0.0517961C6.60148 -0.0172654 6.39877 -0.0172654 6.21486 0.0517961L0.263555 2.33873C0.186139 2.36778 0.119429 2.41975 0.0723353 2.48772C0.0252415 2.55568 6.20225e-06 2.6364 0 2.71908L0 3.65625C0 3.8807 0.181797 4.0625 0.40625 4.0625H12.5938C12.8182 4.0625 13 3.8807 13 3.65625V2.71908C13 2.54973 12.8949 2.39814 12.7364 2.33873ZM1.625 4.875V8.9375H1.21875C0.994297 8.9375 0.8125 9.1193 0.8125 9.34375V10.5625H12.1875V9.34375C12.1875 9.1193 12.0057 8.9375 11.7812 8.9375H11.375V4.875H9.75V8.9375H7.3125V4.875H5.6875V8.9375H3.25V4.875H1.625ZM12.5938 11.375H0.40625C0.181797 11.375 0 11.5568 0 11.7812V12.5938C0 12.8182 0.181797 13 0.40625 13H12.5938C12.8182 13 13 12.8182 13 12.5938V11.7812C13 11.5568 12.8182 11.375 12.5938 11.375Z" fill="white"/>
</svg>
