<svg width="13" height="13" viewBox="0 0 13 13" fill="none" xmlns="http://www.w3.org/2000/svg">
<path d="M11.5 0.25H1.5C0.875 0.25 0.25 0.8125 0.25 1.5V3.38125C0.25 3.83125 0.51875 4.21875 0.875 4.4375V11.5C0.875 12.1875 1.5625 12.75 2.125 12.75H10.875C11.4375 12.75 12.125 12.1875 12.125 11.5V4.4375C12.4812 4.21875 12.75 3.83125 12.75 3.38125V1.5C12.75 0.8125 12.125 0.25 11.5 0.25ZM10.875 11.5H2.125V4.625H10.875V11.5ZM11.5 3.375H1.5V1.5H11.5V3.375Z" fill="white"/>
<path d="M8.375 6.5H4.625V7.75H8.375V6.5Z" fill="white"/>
</svg>
