<svg width="23" height="22" viewBox="0 0 23 22" fill="none" xmlns="http://www.w3.org/2000/svg">
<path d="M20.7374 0.000244141H2.83633C1.71751 0.000244141 0.598694 0.990244 0.598694 2.20024V5.51124C0.598694 6.30324 1.07978 6.98524 1.71751 7.37024V19.8002C1.71751 21.0102 2.94821 22.0002 3.95514 22.0002H19.6186C20.6255 22.0002 21.8562 21.0102 21.8562 19.8002V7.37024C22.4939 6.98524 22.975 6.30324 22.975 5.51124V2.20024C22.975 0.990244 21.8562 0.000244141 20.7374 0.000244141ZM19.6186 19.8002H3.95514V7.70024H19.6186V19.8002ZM20.7374 5.50024H2.83633V2.20024H20.7374V5.50024Z" fill="#135146"/>
<path d="M14.8382 11.0002H8.73553V13.0002H14.8382V11.0002Z" fill="#135146"/>
</svg>
