<svg width="68" height="68" viewBox="0 0 68 68" fill="none" xmlns="http://www.w3.org/2000/svg">
<circle cx="34" cy="34" r="33" stroke="#3D3D3D" stroke-opacity="0.4" stroke-width="2"/>
<path d="M50.6302 31.8862C50.9435 31.1168 51.1193 30.2756 51.1193 29.3985C51.1193 25.5879 47.833 22.4962 43.7825 22.4962C42.2769 22.4962 40.8706 22.9276 39.709 23.661C37.592 20.2098 33.6408 17.8947 29.1088 17.8947C22.3528 17.8947 16.8807 23.0426 16.8807 29.3985C16.8807 29.5926 16.8883 29.7867 16.896 29.9809C12.6162 31.3973 9.54385 35.2366 9.54385 39.7519C9.54385 45.4678 14.4733 50.1052 20.5491 50.1052H48.6737C54.077 50.1052 58.4561 45.9855 58.4561 40.9022C58.4561 36.4517 55.0934 32.7346 50.6302 31.8862ZM39.6096 36.3007H34.6114V44.3534C34.6114 44.9861 34.0611 45.5037 33.3886 45.5037H29.7202C29.0476 45.5037 28.4974 44.9861 28.4974 44.3534V36.3007H23.4991C22.4063 36.3007 21.8636 35.0641 22.6355 34.3379L30.6908 26.7598C31.1646 26.314 31.9441 26.314 32.418 26.7598L40.4732 34.3379C41.2451 35.0641 40.6949 36.3007 39.6096 36.3007Z" fill="#1976D2"/>
</svg>
